<?xml version="1.0" standalone="no"?>
<!DOCTYPE svg PUBLIC "-//W3C//DTD SVG 20010904//EN"
 "http://www.w3.org/TR/2001/REC-SVG-20010904/DTD/svg10.dtd">
<svg version="1.0" xmlns="http://www.w3.org/2000/svg"
 width="350.000000pt" height="350.000000pt" viewBox="0 0 350.000000 350.000000"
 preserveAspectRatio="xMidYMid meet">
<metadata>
Created by potrace 1.11, written by Peter Selinger 2001-2013
</metadata>
<g transform="translate(0.000000,350.000000) scale(0.100000,-0.100000)"
fill="#000000" stroke="none">
<path d="M1699 3147 c-15 -12 -91 -132 -169 -267 -79 -135 -164 -281 -190
-325 -26 -44 -94 -159 -150 -255 -57 -96 -147 -249 -200 -340 -54 -91 -166
-282 -250 -425 -83 -143 -189 -323 -234 -400 -46 -77 -125 -212 -176 -300 -52
-88 -126 -214 -166 -281 -99 -167 -108 -201 -65 -244 13 -13 211 -15 1641 -18
l1627 -2 27 21 c55 43 62 29 -306 654 -276 471 -692 1179 -743 1265 -400 686
-522 889 -546 913 -29 26 -49 35 -49 19 0 -11 103 -190 425 -737 159 -269 363
-618 455 -775 92 -157 236 -402 320 -545 84 -143 214 -363 288 -490 74 -126
142 -241 152 -255 l18 -25 -1659 0 c-912 0 -1658 2 -1656 5 1 3 49 84 106 180
126 213 250 422 451 765 84 143 196 334 250 425 53 91 152 260 220 375 67 116
160 273 205 350 260 442 384 654 399 682 28 56 19 68 -25 30z"/>
<path d="M1715 2910 c-14 -22 -25 -42 -25 -45 0 -3 25 -5 55 -5 30 0 55 3 55
6 0 13 -44 84 -52 84 -4 0 -19 -18 -33 -40z"/>
<path d="M1612 2738 c-13 -24 -38 -68 -57 -98 -19 -30 -48 -80 -65 -110 -17
-30 -40 -70 -52 -88 -24 -38 -15 -52 33 -52 21 0 30 9 49 50 13 28 27 50 32
50 5 0 6 5 3 10 -3 6 -2 10 3 10 5 0 19 23 32 50 13 28 26 50 30 50 4 0 17 23
30 50 13 28 28 50 33 50 6 0 8 3 4 6 -3 4 0 13 8 21 21 20 19 30 -7 37 -43 11
-54 6 -76 -36z"/>
<path d="M1803 2773 c-23 -4 -33 -23 -13 -23 6 0 9 -4 8 -8 -3 -8 28 -65 87
-162 19 -30 44 -73 56 -95 12 -22 27 -43 33 -47 6 -4 7 -8 3 -8 -5 0 -2 -7 6
-15 9 -8 17 -20 19 -26 3 -8 16 -10 40 -5 l36 7 -33 57 c-19 31 -44 75 -56 97
-12 22 -24 42 -28 45 -3 3 -17 25 -30 50 -81 152 -74 144 -128 133z"/>
<path d="M1660 2341 c-5 -11 -10 -39 -10 -63 0 -24 -3 -60 -6 -81 l-7 -38 -46
3 -46 3 -3 85 c-2 47 -7 89 -11 93 -9 9 -139 -11 -146 -23 -6 -9 -64 -390 -72
-472 -6 -57 -6 -58 21 -58 19 0 26 -5 26 -20 0 -16 9 -21 49 -26 27 -3 54 -10
61 -14 10 -6 -3 -70 -53 -276 -36 -148 -75 -310 -87 -361 l-22 -91 -37 -7
c-103 -18 -107 -21 -181 -120 -38 -52 -71 -95 -73 -95 -2 0 -66 -11 -143 -25
-76 -14 -141 -25 -144 -25 -2 0 0 -4 6 -10 6 -6 366 -10 999 -10 545 0 994 0
1000 0 6 0 6 3 0 9 -6 5 -64 19 -130 31 -66 11 -128 23 -137 26 -10 3 -47 46
-84 97 -37 51 -71 95 -76 98 -5 3 -37 11 -73 18 -43 9 -66 18 -69 30 -3 9 -21
86 -41 171 -44 191 -68 295 -100 427 -14 56 -25 106 -25 112 0 6 17 11 38 11
54 0 80 9 85 31 3 11 14 19 26 19 26 0 26 15 7 154 -8 55 -22 160 -32 231 -9
72 -22 136 -29 143 -6 7 -44 16 -83 19 l-72 6 0 -92 0 -91 -49 2 c-58 3 -61 7
-61 109 0 37 -5 70 -12 77 -7 7 -40 12 -80 12 -56 0 -69 -3 -78 -19z m-7
-1081 c-3 -11 -9 -17 -15 -14 -5 3 -4 12 3 20 16 19 18 18 12 -6z m-58 -17
c-4 -16 -8 -34 -8 -41 0 -7 -4 -11 -9 -10 -5 2 -9 7 -9 11 1 4 1 21 1 37 0 21
5 30 16 30 13 0 15 -6 9 -27z m-22 -93 c14 -11 35 -20 47 -20 15 0 20 -5 17
-17 -3 -10 -8 -30 -11 -45 -6 -28 -7 -28 -91 -28 -46 0 -87 -4 -90 -10 -11
-17 -35 -11 -35 10 0 21 27 40 59 40 37 0 121 21 121 31 0 5 -18 9 -40 9 -44
0 -45 1 -28 30 16 25 19 25 51 0z m30 -162 c-2 -5 -15 -8 -29 -8 -14 0 -27 -6
-30 -14 -3 -8 -25 -17 -49 -21 -49 -7 -42 5 -75 -124 -7 -27 -17 -41 -33 -45
-36 -10 -139 -7 -132 4 3 5 12 7 20 3 9 -3 15 1 15 11 0 10 -6 13 -15 10 -16
-7 -22 21 -6 31 13 7 61 95 61 110 0 21 53 39 135 45 109 7 144 6 138 -2z"/>
<path d="M1085 1826 c-9 -19 -14 -40 -10 -45 3 -6 -1 -11 -9 -11 -9 0 -16 -4
-16 -8 0 -11 39 -47 43 -41 2 2 16 25 30 51 l28 47 -21 21 c-11 11 -22 20 -25
20 -2 0 -11 -16 -20 -34z"/>
<path d="M2353 1845 l-22 -15 22 -38 c37 -64 55 -84 67 -77 7 5 9 -1 4 -19 -4
-16 -2 -26 5 -26 6 0 11 -9 11 -20 0 -11 6 -20 14 -20 9 0 12 7 9 20 -6 24 12
27 21 3 4 -11 1 -22 -8 -29 -25 -17 -19 -27 12 -19 25 6 25 5 9 -7 -18 -14
-18 -15 0 -49 21 -36 49 -44 66 -18 7 12 -13 52 -84 172 -52 86 -96 157 -99
157 -3 0 -15 -7 -27 -15z"/>
<path d="M1030 1732 c0 -8 -7 -20 -15 -29 -8 -8 -12 -19 -9 -25 4 -6 1 -14 -7
-18 -10 -7 -10 -11 0 -24 18 -22 38 -20 46 4 3 11 13 27 22 36 15 14 14 18
-11 42 -14 15 -26 21 -26 14z"/>
<path d="M924 1553 c-26 -43 -47 -86 -46 -95 0 -10 -3 -18 -9 -18 -5 0 -9 -4
-9 -9 0 -6 -11 -22 -25 -37 -30 -32 -31 -42 -7 -60 25 -19 35 -17 29 7 -4 15
-2 19 9 15 8 -3 14 1 14 9 0 8 4 15 9 15 5 0 11 8 14 18 8 23 39 75 52 85 6 4
2 13 -10 23 l-20 16 20 -6 c15 -4 27 4 49 35 15 22 27 41 25 42 -2 1 -14 10
-25 20 -22 18 -22 18 -70 -60z m56 17 c0 -5 -7 -10 -16 -10 -8 0 -12 5 -9 10
3 6 10 10 16 10 5 0 9 -4 9 -10z m-56 -95 c-6 -16 -24 -21 -24 -7 0 11 11 22
21 22 5 0 6 -7 3 -15z"/>
<path d="M2563 1507 c-26 -11 -30 -35 -9 -43 8 -3 12 -12 9 -20 -4 -11 2 -13
28 -8 39 8 49 15 32 21 -7 3 -13 10 -13 17 0 7 -6 19 -12 28 -10 13 -18 14
-35 5z"/>
<path d="M2587 1414 c-3 -3 4 -23 17 -43 12 -20 26 -45 30 -56 7 -19 8 -19 26
5 26 33 25 43 -2 34 l-23 -7 20 23 20 23 -24 -6 c-18 -4 -21 -3 -12 6 6 6 11
15 11 19 0 9 -54 11 -63 2z"/>
<path d="M780 1303 c-11 -15 -19 -32 -16 -39 3 -7 -2 -15 -10 -18 -9 -3 -12
-10 -9 -16 3 -5 1 -10 -4 -10 -18 0 -12 -26 9 -45 13 -11 20 -14 20 -6 0 7 7
19 15 28 8 8 13 18 11 22 -3 4 6 20 20 36 29 34 30 51 5 65 -16 8 -23 5 -41
-17z m40 -13 c0 -5 -2 -10 -4 -10 -3 0 -8 5 -11 10 -3 6 -1 10 4 10 6 0 11 -4
11 -10z"/>
<path d="M2671 1301 c-12 -8 -11 -17 8 -55 12 -26 28 -49 36 -52 8 -4 15 -12
15 -20 0 -8 6 -14 14 -14 19 0 42 30 30 38 -5 4 -18 24 -28 45 -11 20 -25 37
-32 37 -8 0 -11 6 -8 15 7 17 -13 20 -35 6z"/>
<path d="M680 1139 c-21 -39 -21 -41 -3 -55 17 -13 16 -14 -9 -8 -16 3 -28 3
-28 -1 0 -11 32 -34 47 -35 16 0 43 57 36 76 -3 10 0 12 10 9 26 -10 27 22 2
39 -13 9 -27 16 -29 16 -3 0 -15 -18 -26 -41z"/>
<path d="M2748 1144 c-7 -7 24 -64 35 -64 4 0 7 -6 7 -14 0 -7 9 -25 20 -39
36 -46 73 -8 43 43 -9 16 -20 27 -25 24 -4 -3 -8 4 -8 16 0 14 -4 19 -12 14
-8 -5 -9 -2 -5 9 5 13 0 17 -22 17 -15 0 -30 -3 -33 -6z"/>
<path d="M623 1044 c3 -4 -1 -13 -9 -21 -8 -9 -13 -21 -10 -28 3 -8 -3 -16
-11 -20 -14 -5 -14 -9 6 -28 17 -16 25 -18 28 -9 3 7 11 19 20 27 8 8 12 19 9
24 -4 5 -1 11 5 13 16 5 -11 48 -30 48 -8 0 -12 -3 -8 -6z"/>
<path d="M2857 996 c-17 -13 -14 -46 4 -46 5 0 9 -7 9 -15 0 -8 4 -15 9 -15
21 0 41 13 41 27 0 8 -5 11 -11 8 -6 -4 -9 -1 -8 6 3 17 -11 49 -20 49 -3 0
-14 -7 -24 -14z"/>
<path d="M566 941 c-4 -6 -4 -11 -1 -11 3 0 -3 -10 -15 -22 -11 -12 -20 -26
-20 -31 0 -4 -7 -15 -15 -24 -9 -8 -14 -20 -12 -26 2 -6 -8 -21 -22 -34 l-26
-23 25 -19 c21 -17 27 -18 38 -7 7 7 14 19 15 27 4 24 18 40 29 33 7 -5 9 0 6
14 -4 13 0 23 9 26 10 4 14 15 11 30 -4 17 -1 23 9 19 18 -7 16 8 -6 36 -12
16 -21 20 -25 12z m4 -71 c0 -5 -4 -10 -10 -10 -5 0 -10 5 -10 10 0 6 5 10 10
10 6 0 10 -4 10 -10z"/>
<path d="M2890 898 c0 -13 48 -98 55 -98 7 0 45 39 45 46 0 3 -12 3 -27 0 -25
-6 -26 -5 -10 7 23 19 21 31 -4 24 -17 -4 -19 -3 -10 6 18 18 13 27 -19 27
-16 0 -30 -5 -30 -12z"/>
<path d="M2979 787 c-15 -20 -15 -24 0 -47 8 -14 19 -27 22 -30 3 -3 18 -30
32 -60 50 -105 64 -121 94 -114 38 9 47 19 31 35 -7 8 -28 38 -47 67 -18 28
-37 52 -43 52 -5 0 -6 5 -3 10 3 6 -1 10 -10 10 -9 0 -15 6 -12 13 5 14 -29
87 -41 87 -4 0 -14 -11 -23 -23z m26 -27 c-3 -5 -11 -10 -16 -10 -6 0 -7 5 -4
10 3 6 11 10 16 10 6 0 7 -4 4 -10z"/>
<path d="M440 730 c0 -10 32 -30 49 -30 20 0 11 17 -14 28 -31 14 -35 15 -35
2z"/>
<path d="M411 675 c-7 -19 -9 -39 -6 -45 3 -6 -1 -7 -9 -4 -10 4 -16 1 -16 -9
0 -8 -6 -17 -12 -20 -9 -3 -8 -10 6 -26 11 -11 22 -21 25 -21 4 0 15 17 26 38
10 20 25 45 33 54 12 14 11 20 -5 42 -10 14 -20 26 -23 26 -4 0 -12 -16 -19
-35z"/>
<path d="M1194 666 c-17 -7 -41 -27 -54 -42 l-23 -29 6 38 6 37 -40 0 c-40 0
-48 -7 -28 -27 6 -6 9 -21 7 -34 -3 -21 -8 -24 -48 -24 -43 0 -45 1 -48 33 -2
18 1 32 7 32 6 0 11 5 11 10 0 6 -18 10 -41 10 -36 0 -40 -2 -33 -17 11 -26
17 -110 9 -140 l-6 -26 -26 25 c-25 26 -26 27 -10 66 15 38 15 42 -4 66 -18
23 -28 26 -80 26 -33 0 -59 -4 -59 -10 0 -5 5 -10 10 -10 6 0 10 -35 10 -84 0
-47 -4 -88 -10 -91 -23 -14 -7 -25 35 -25 44 0 60 12 30 24 -16 6 -22 66 -6
66 5 0 25 -20 45 -45 35 -42 40 -45 87 -45 46 0 62 11 39 25 -5 3 -10 24 -10
46 l0 39 50 0 50 0 0 -39 c0 -22 -4 -43 -10 -46 -23 -14 -7 -25 37 -25 37 0
44 3 35 12 -7 7 -12 23 -12 38 l1 25 12 -23 c20 -35 57 -55 103 -55 51 0 90
23 110 66 l15 32 -4 -47 -5 -48 73 0 c77 0 116 18 136 64 7 16 8 11 5 -21 l-4
-43 76 -2 c122 -3 135 -1 154 22 28 34 22 62 -22 105 -22 21 -40 45 -40 52 0
23 30 27 45 7 10 -15 16 -16 26 -7 33 32 -32 64 -82 39 -16 -8 -29 -10 -29 -5
0 5 -32 9 -72 9 -56 0 -69 -3 -60 -12 7 -7 12 -26 11 -42 0 -26 -2 -28 -8 -11
-19 46 -49 60 -137 64 -57 2 -84 -1 -84 -8 0 -6 5 -11 10 -11 6 0 10 -15 10
-32 0 -33 0 -33 -13 -9 -28 55 -99 81 -153 57z m79 -30 c29 -22 40 -70 27
-111 -32 -97 -141 -48 -127 57 8 60 57 86 100 54z m-427 -21 c7 -27 -10 -55
-32 -55 -10 0 -14 13 -14 40 0 33 3 40 20 40 13 0 22 -9 26 -25z m649 0 c51
-51 14 -151 -53 -143 -27 3 -27 4 -30 86 l-3 82 31 0 c19 0 40 -9 55 -25z
m165 14 c0 -6 7 -9 15 -5 10 4 15 -1 15 -16 0 -11 16 -35 35 -54 34 -31 45
-67 26 -78 -14 -9 -41 4 -41 20 0 19 -24 18 -40 -1 -7 -8 -21 -15 -31 -15 -15
0 -19 7 -19 35 0 34 20 49 35 25 12 -20 25 -9 25 20 0 27 -2 29 -30 24 -28 -6
-30 -5 -30 25 0 24 4 31 20 31 11 0 20 -5 20 -11z"/>
<path d="M1970 668 c-17 -9 -26 -23 -28 -46 -3 -26 4 -39 37 -71 46 -45 48
-53 25 -72 -14 -11 -19 -10 -34 9 -23 28 -37 28 -43 0 -2 -13 -5 18 -6 68 -1
58 3 94 11 102 9 9 1 12 -37 12 -38 0 -46 -3 -37 -12 7 -7 12 -44 12 -98 0
-54 -5 -91 -12 -98 -9 -9 2 -12 53 -14 95 -3 110 -1 130 18 31 28 24 65 -21
109 -22 21 -40 45 -40 52 0 23 32 28 47 7 14 -19 14 -19 29 0 13 18 14 10 14
-70 0 -57 -4 -94 -12 -102 -9 -9 8 -12 76 -12 74 0 87 2 82 15 -9 24 11 65 32
65 18 0 42 -37 42 -65 0 -11 14 -15 55 -15 30 0 55 5 55 10 0 6 -4 10 -10 10
-6 0 -10 26 -10 57 l0 57 68 -67 c37 -37 73 -67 80 -67 9 0 12 28 12 100 0 82
3 100 15 100 12 0 15 -17 15 -90 0 -53 -4 -90 -10 -90 -5 0 -10 -4 -10 -10 0
-6 31 -10 73 -10 88 0 129 21 147 74 16 49 -2 101 -44 127 -25 16 -50 19 -138
19 -66 0 -108 -4 -108 -10 0 -5 5 -10 10 -10 6 0 10 -27 10 -61 l0 -61 -71 76
c-39 42 -75 73 -80 70 -5 -3 -9 -47 -10 -97 l0 -92 -37 93 c-41 107 -57 114
-84 37 -50 -137 -49 -135 -74 -135 -23 0 -24 2 -24 83 0 51 5 88 12 95 9 9 2
12 -34 12 -25 0 -58 2 -74 5 -16 3 -40 0 -54 -7z m702 -32 c36 -8 62 -57 54
-101 -8 -39 -22 -53 -64 -61 -40 -8 -52 15 -52 99 0 66 4 78 23 72 7 -2 24 -6
39 -9z m-417 -66 c3 -5 1 -10 -4 -10 -6 0 -11 5 -11 10 0 6 2 10 4 10 3 0 8
-4 11 -10z"/>
<path d="M485 587 c-14 -24 -25 -47 -25 -50 0 -4 25 -7 55 -7 30 0 55 2 55 4
0 6 -52 96 -55 96 -2 0 -16 -20 -30 -43z"/>
<path d="M2946 586 c-14 -25 -26 -47 -26 -50 0 -3 25 -6 55 -6 30 0 55 3 55 6
0 7 -51 94 -55 94 -2 0 -15 -20 -29 -44z"/>
<path d="M286 474 c-3 -8 -6 -18 -6 -20 0 -2 96 -3 213 -2 181 3 212 5 212 18
0 13 -31 15 -206 18 -182 2 -207 0 -213 -14z"/>
<path d="M2780 470 c0 -19 7 -20 215 -20 118 0 215 2 215 4 0 2 -3 11 -6 20
-5 14 -34 16 -215 16 -202 0 -209 -1 -209 -20z"/>
</g>
</svg>
